<svg xmlns="http://www.w3.org/2000/svg" fill="none" viewBox="3.5799086757990866 0 20.77625570776256 24.32" style="max-height: 500px" width="20.77625570776256" height="24.32">
<g filter="url(#filter0_d_4952_127)">
<path fill="#E11C4B" d="M6.22222 24H21.7778C22.3671 24 22.9324 23.7472 23.3491 23.2971C23.7659 22.847 24 22.2366 24 21.6001V10.8005C24.0008 10.6426 23.9728 10.4861 23.9175 10.3399C23.8622 10.1937 23.7807 10.0607 23.6778 9.94856L14.7889 0.348937C14.5807 0.125445 14.2991 0 14.0055 0C13.712 0 13.4304 0.125445 13.2222 0.348937L4.33333 9.94856C4.22835 10.0597 4.14482 10.1922 4.08761 10.3385C4.03039 10.4847 4.00061 10.6418 4 10.8005V21.6001C4 22.2366 4.23413 22.847 4.65087 23.2971C5.06762 23.7472 5.63285 24 6.22222 24ZM11.7778 21.6001V15.6003H16.2222V21.6001H11.7778ZM6.22222 11.2925L14 2.89284L21.7778 11.2925V21.6001H18.4444V15.6003C18.4444 14.9638 18.2103 14.3534 17.7936 13.9033C17.3768 13.4533 16.8116 13.2004 16.2222 13.2004H11.7778C11.1884 13.2004 10.6232 13.4533 10.2064 13.9033C9.78968 14.3534 9.55555 14.9638 9.55555 15.6003V21.6001H6.22222V11.2925Z"/>
</g>
<defs>
<filter color-interpolation-filters="sRGB" filterUnits="userSpaceOnUse" height="32" width="28" y="0" x="0" id="filter0_d_4952_127">
<feFlood result="BackgroundImageFix" flood-opacity="0"/>
<feColorMatrix result="hardAlpha" values="0 0 0 0 0 0 0 0 0 0 0 0 0 0 0 0 0 0 127 0" type="matrix" in="SourceAlpha"/>
<feOffset dy="4"/>
<feGaussianBlur stdDeviation="2"/>
<feComposite operator="out" in2="hardAlpha"/>
<feColorMatrix values="0 0 0 0 0 0 0 0 0 0 0 0 0 0 0 0 0 0 0.25 0" type="matrix"/>
<feBlend result="effect1_dropShadow_4952_127" in2="BackgroundImageFix" mode="normal"/>
<feBlend result="shape" in2="effect1_dropShadow_4952_127" in="SourceGraphic" mode="normal"/>
</filter>
</defs>
</svg>