<svg width="28" height="32" fill="none" xmlns="http://www.w3.org/2000/svg"><g filter="url(#a)"><path d="M6.222 24h15.556c.59 0 1.154-.253 1.571-.703A2.5 2.5 0 0 0 24 21.6V10.8c0-.157-.027-.314-.082-.46a1.213 1.213 0 0 0-.24-.391l-8.89-9.6A1.07 1.07 0 0 0 14.006 0a1.07 1.07 0 0 0-.783.349l-8.889 9.6a1.208 1.208 0 0 0-.245.39A1.283 1.283 0 0 0 4 10.8v10.8a2.5 2.5 0 0 0 .65 1.697c.418.45.983.703 1.572.703Zm5.556-2.4v-6h4.444v6h-4.444ZM6.222 11.292 14 2.893l7.778 8.4V21.6h-3.334v-6a2.5 2.5 0 0 0-.65-1.697 2.143 2.143 0 0 0-1.572-.703h-4.444c-.59 0-1.155.253-1.572.703a2.5 2.5 0 0 0-.65 1.697v6H6.222V11.292Z" fill="#E11C4B"/></g><defs><filter id="a" x="0" y="0" width="28" height="32" filterUnits="userSpaceOnUse" color-interpolation-filters="sRGB"><feFlood flood-opacity="0" result="BackgroundImageFix"/><feColorMatrix in="SourceAlpha" values="0 0 0 0 0 0 0 0 0 0 0 0 0 0 0 0 0 0 127 0" result="hardAlpha"/><feOffset dy="4"/><feGaussianBlur stdDeviation="2"/><feComposite in2="hardAlpha" operator="out"/><feColorMatrix values="0 0 0 0 0 0 0 0 0 0 0 0 0 0 0 0 0 0 0.25 0"/><feBlend in2="BackgroundImageFix" result="effect1_dropShadow_4902_127"/><feBlend in="SourceGraphic" in2="effect1_dropShadow_4902_127" result="shape"/></filter></defs></svg>