<svg width="24" height="24" fill="none" xmlns="http://www.w3.org/2000/svg"><path d="M16.65 0a7.574 7.574 0 0 0-2.927.635l-.044.02-.045.025a7.344 7.344 0 0 0-1.673 1.266c-2.68-2.512-6.947-2.694-9.867.157l-.03.03-.026.03C-.523 5.06-.463 9.523 1.072 13.05l.013.028.014.029c1.808 3.627 5.184 6.709 8.26 9.242l.009.008.007.006c.197.157.538.482.93.802.394.32.838.67 1.487.805l.146.03.146-.013c.682-.064.95-.336 1.397-.642.448-.305.944-.693 1.453-1.117a42.864 42.864 0 0 0 2.727-2.487c.009-.01.023-.022.032-.03l.004-.005c1.441-1.332 2.869-2.868 4.079-4.674v-.002l.008-.01c1.919-2.799 2.85-6.571 1.74-10.288l-.02-.066-.027-.062C22.23 1.684 19.549-.032 16.65 0Zm.034 2.287c2.09-.052 3.92 1.16 4.829 3.232.84 2.9.114 5.857-1.45 8.133l-.005.005-.003.006c-1.09 1.629-2.41 3.055-3.777 4.316l-.018.017-.017.018a41.55 41.55 0 0 1-2.611 2.381c-.476.397-.933.752-1.288.993-.133.091-.26.153-.364.201a3.243 3.243 0 0 1-.392-.273c-.29-.236-.599-.537-.935-.806l-.016-.013c-2.986-2.46-6.131-5.448-7.644-8.46-1.228-2.842-1.174-6.243.56-8.241 2.36-2.272 5.863-1.778 7.61.553l.852 1.135.823-1.158a5.225 5.225 0 0 1 1.725-1.56 5.815 5.815 0 0 1 2.121-.479Z" fill="#8D8D8D"/></svg>