<svg xmlns="http://www.w3.org/2000/svg" width="117" height="79" style="shape-rendering:geometricPrecision;text-rendering:geometricPrecision;image-rendering:optimizeQuality;fill-rule:evenodd;clip-rule:evenodd"><path style="opacity:.893" fill="#8c8d8c" d="M4.5.5c36.002-.167 72.001 0 108 .5l2.5 2.5a640.205 640.205 0 0 1-1 71l-2.5 2.5a1472.59 1472.59 0 0 1-108-1A29.502 29.502 0 0 1 1 71.5a1156.25 1156.25 0 0 1 0-68 30.144 30.144 0 0 1 3.5-3Zm23 6a1292.15 1292.15 0 0 1 78 1.5l-42 40c-4.242 2.202-8.242 1.869-12-1l-41-39c5.848-.173 11.515-.673 17-1.5Zm-20 9a583.351 583.351 0 0 1 36 34.5c8.462 7.83 17.462 8.496 27 2A966.334 966.334 0 0 1 108 15.5c.667 16 .667 32 0 48-7.116-7.958-14.95-14.958-23.5-21-2.992.48-4.159 2.147-3.5 5A373.205 373.205 0 0 0 104.5 70c-30.667.667-61.333.667-92 0 8.12-7.445 15.453-15.445 22-24-1.056-3.529-3.056-4.196-6-2A282.166 282.166 0 0 1 8 63.5a1152.44 1152.44 0 0 1-.5-48Z"/></svg>