<svg width="24" height="24" fill="none" xmlns="http://www.w3.org/2000/svg"><path d="M18.036 20c-1.085 0-1.965.895-1.965 2s.88 2 1.965 2S20 23.105 20 22s-.88-2-1.964-2Zm-7.072 0C9.88 20 9 20.895 9 22s.88 2 1.964 2c1.085 0 1.965-.895 1.965-2s-.88-2-1.965-2Z" fill="#8D8D8D"/><path fill-rule="evenodd" clip-rule="evenodd" d="M18.036 21a.983.983 0 0 0-.965 1c0 .57.449 1 .965 1s.964-.43.964-1c0-.57-.448-1-.964-1Zm-7.072 0c-.516 0-.964.43-.964 1 0 .57.448 1 .964 1s.965-.43.965-1c0-.57-.449-1-.965-1Zm5.107 1c0-1.105.88-2 1.965-2S20 20.895 20 22s-.88 2-1.964 2c-1.085 0-1.965-.895-1.965-2ZM9 22c0-1.105.88-2 1.964-2 1.085 0 1.965.895 1.965 2s-.88 2-1.965 2S9 23.105 9 22ZM0 1a1 1 0 0 1 1-1h4.68a1 1 0 0 1 .968.744l1.29 4.873H23a1 1 0 0 1 .94 1.342l-3.745 10.298a1 1 0 0 1-.94.658H9.894a1 1 0 0 1-.967-.744L4.91 2H1a1 1 0 0 1-1-1Zm8.467 6.617 2.196 8.298h7.892l3.017-8.298H8.467Z" fill="#8D8D8D"/></svg>