<svg width="19" height="19" fill="none" xmlns="http://www.w3.org/2000/svg"><path d="m12.575 14.247.364.046.259-.26L14.83 12.4l.001-.001a.849.849 0 0 1 .906-.185l1.986.793h.002a.843.843 0 0 1 .524.77v3.647a.837.837 0 0 1-.873.825c-6.74-.42-10.732-3.466-13.128-6.924C1.83 7.835 1.015 3.882.755 1.676A.836.836 0 0 1 1.59.75h3.531a.827.827 0 0 1 .766.521l.796 1.996.002.005a.829.829 0 0 1-.18.897L4.87 5.805l-.267.267.055.373.742-.11-.742.11v.004l.002.006.003.02a4.255 4.255 0 0 0 .057.295 10.973 10.973 0 0 0 1.3 3.242c1.114 1.837 3.11 3.806 6.555 4.235Z" stroke="#8D8D8D" stroke-width="1.5"/></svg>