<svg width="14" height="19" viewBox="0 0 14 19" fill="none" xmlns="http://www.w3.org/2000/svg">
<path d="M6.95071 17.7198C6.04926 16.3722 5.28632 15.2514 4.64011 14.3022C3.49361 12.618 2.71455 11.4736 2.18131 10.5592C1.77362 9.86011 1.53645 9.33832 1.39647 8.85084C1.258 8.36867 1.20454 7.88504 1.20454 7.25C1.20454 3.91436 3.82083 1.25 7 1.25C10.1792 1.25 12.7955 3.91436 12.7955 7.25C12.7955 7.88504 12.742 8.36867 12.6035 8.85084C12.4635 9.33832 12.2264 9.86011 11.8187 10.5592C11.2854 11.4736 10.5064 12.618 9.35989 14.3022C8.71377 15.2513 7.95094 16.3719 7.04965 17.7193C7.0387 17.7355 7.02941 17.7415 7.02402 17.7443C7.0173 17.7478 7.00911 17.75 7 17.75C6.99089 17.75 6.98269 17.7478 6.97597 17.7443C6.97053 17.7415 6.96112 17.7353 6.95004 17.7188L6.32732 18.1368L6.95071 17.7198ZM7 10.8125C8.94204 10.8125 10.4773 9.1956 10.4773 7.25C10.4773 5.3044 8.94204 3.6875 7 3.6875C5.05796 3.6875 3.52273 5.3044 3.52273 7.25C3.52273 9.1956 5.05796 10.8125 7 10.8125Z" stroke="#8D8D8D" stroke-width="1.5"/>
</svg>
