<?xml version="1.0" encoding="UTF-8"?>
<!DOCTYPE svg PUBLIC "-//W3C//DTD SVG 1.1//EN" "http://www.w3.org/Graphics/SVG/1.1/DTD/svg11.dtd">
<svg xmlns="http://www.w3.org/2000/svg" version="1.1" width="117px" height="79px" style="shape-rendering:geometricPrecision; text-rendering:geometricPrecision; image-rendering:optimizeQuality; fill-rule:evenodd; clip-rule:evenodd" xmlns:xlink="http://www.w3.org/1999/xlink">
<g><path style="opacity:0.893" fill="#8c8d8c" d="M 4.5,0.5 C 40.5015,0.333348 76.5015,0.500014 112.5,1C 113.333,1.83333 114.167,2.66667 115,3.5C 115.979,27.2546 115.646,50.9212 114,74.5C 113.167,75.3333 112.333,76.1667 111.5,77C 75.4152,77.9866 39.4152,77.6533 3.5,76C 2.53986,74.5806 1.70653,73.0806 1,71.5C 0.333333,48.8333 0.333333,26.1667 1,3.5C 2.14508,2.36362 3.31174,1.36362 4.5,0.5 Z M 27.5,6.5 C 53.5168,6.21497 79.5168,6.71497 105.5,8C 91.5,21.3333 77.5,34.6667 63.5,48C 59.2584,50.2021 55.2584,49.8688 51.5,47C 37.8333,34 24.1667,21 10.5,8C 16.3482,7.82716 22.0149,7.32716 27.5,6.5 Z M 7.5,15.5 C 19.9343,26.4319 31.9343,37.9319 43.5,50C 51.9615,57.8297 60.9615,58.4964 70.5,52C 82.6956,39.4704 95.1956,27.3037 108,15.5C 108.667,31.5 108.667,47.5 108,63.5C 100.884,55.5424 93.0506,48.5424 84.5,42.5C 81.508,42.9799 80.3414,44.6466 81,47.5C 88.5302,55.3645 96.3635,62.8645 104.5,70C 73.8333,70.6667 43.1667,70.6667 12.5,70C 20.6195,62.5547 27.9528,54.5547 34.5,46C 33.4436,42.471 31.4436,41.8043 28.5,44C 21.9693,50.8651 15.136,57.3651 8,63.5C 7.50007,47.5035 7.33341,31.5035 7.5,15.5 Z"/></g>
</svg>
