<svg width="19" height="19" viewBox="0 0 19 19" fill="none" xmlns="http://www.w3.org/2000/svg">
<path d="M12.5746 14.2474L12.9386 14.2928L13.1979 14.0334L14.8307 12.4C14.8311 12.3995 14.8316 12.399 14.8321 12.3986C14.9489 12.2837 15.0964 12.205 15.2569 12.1721C15.4174 12.1392 15.584 12.1534 15.7366 12.2131C15.7372 12.2133 15.7377 12.2135 15.7382 12.2137L17.7245 13.007C17.7251 13.0073 17.7256 13.0075 17.7262 13.0077C17.8795 13.0704 18.011 13.1769 18.1042 13.314C18.1972 13.4509 18.2479 13.6121 18.25 13.7776V17.4235C18.2488 17.5354 18.2251 17.646 18.1804 17.7486C18.1353 17.852 18.0698 17.9451 17.9878 18.0224C17.9058 18.0998 17.8091 18.1597 17.7034 18.1986C17.5988 18.2371 17.4877 18.2543 17.3765 18.2491C10.6373 17.8284 6.64451 14.7826 4.24897 11.3251C1.83048 7.83452 1.01482 3.88196 0.754907 1.67605C0.742217 1.55942 0.754209 1.44142 0.790107 1.32973C0.826212 1.2174 0.885675 1.11401 0.964567 1.02636C1.04346 0.938706 1.13999 0.868778 1.2478 0.821156C1.3556 0.773534 1.47225 0.749292 1.59008 0.750016L1.59008 0.75003H1.59468H5.1212C5.28596 0.750703 5.4468 0.800574 5.5831 0.893299C5.71967 0.986201 5.82538 1.11788 5.88658 1.27145L5.88671 1.27177L6.68284 3.26656L6.68282 3.26656L6.68488 3.2716C6.74632 3.42237 6.762 3.58792 6.72995 3.74756C6.69793 3.907 6.61974 4.05345 6.50516 4.16867C6.50501 4.16882 6.50487 4.16897 6.50472 4.16912L4.86961 5.80489L4.60299 6.07161L4.65809 6.4447L5.40004 6.33511C4.65809 6.4447 4.65815 6.44507 4.65821 6.44546L4.65834 6.44638L4.65868 6.44864L4.65965 6.45492L4.66275 6.47436C4.66536 6.49033 4.66908 6.51227 4.67403 6.53982C4.68395 6.59489 4.69886 6.67245 4.71988 6.76953C4.76191 6.96352 4.82857 7.23636 4.92905 7.56403C5.12942 8.21746 5.46751 9.0996 6.02039 10.0119C7.13373 11.8491 9.12988 13.8176 12.5746 14.2474Z" stroke="#8D8D8D" stroke-width="1.5"/>
</svg>
