<?xml version="1.0" encoding="utf-8"?><svg viewBox="0 0 24 24.32" xmlns="http://www.w3.org/2000/svg" xmlns:xlink="http://www.w3.org/1999/xlink"><style>:root>svg{display:none}:root>svg:target{display:block}</style><svg fill="none" viewBox="0 0 24 24" id="account" xmlns="http://www.w3.org/2000/svg"><path fill-rule="evenodd" clip-rule="evenodd" d="M14.161 7.09a2.16 2.16 0 0 0-2.572-2.122h-.005c-.409.072-.848.349-1.201.806-.352.457-.545 1.003-.545 1.477v1c0 .472.193 1.015.547 1.472.354.458.796.737 1.206.813a2.16 2.16 0 0 0 2.57-2.124V7.091Zm-2.975-4.372a4.446 4.446 0 0 1 5.261 4.373v1.321a4.446 4.446 0 0 1-5.263 4.373h-.004c-1.082-.2-1.984-.864-2.602-1.662-.618-.798-1.025-1.823-1.025-2.871v-1c0-1.047.402-2.073 1.02-2.874.617-.8 1.522-1.467 2.613-1.66Z" fill="currentColor"/><path fill-rule="evenodd" clip-rule="evenodd" d="M12 2.286c-5.365 0-9.714 4.349-9.714 9.714S6.635 21.714 12 21.714s9.714-4.349 9.714-9.714S17.365 2.286 12 2.286ZM0 12C0 5.373 5.373 0 12 0s12 5.373 12 12-5.373 12-12 12S0 18.627 0 12Z" fill="currentColor"/><path fill-rule="evenodd" clip-rule="evenodd" d="M12 16.447c-2.896 0-5.338 1.664-6.358 3.957a1.143 1.143 0 0 1-2.088-.929C4.952 16.33 8.23 14.161 12 14.161c3.77 0 7.048 2.17 8.446 5.314a1.143 1.143 0 1 1-2.089.929c-1.019-2.293-3.461-3.957-6.357-3.957Z" fill="currentColor"/></svg><svg fill="none" viewBox="0 0 24 24" id="basket" xmlns="http://www.w3.org/2000/svg"><path d="M18.036 20c-1.085 0-1.965.895-1.965 2s.88 2 1.965 2S20 23.105 20 22s-.88-2-1.964-2Zm-7.072 0C9.88 20 9 20.895 9 22s.88 2 1.964 2c1.085 0 1.965-.895 1.965-2s-.88-2-1.965-2Z" fill="currentColor"/><path fill-rule="evenodd" clip-rule="evenodd" d="M18.036 21c-.516 0-.965.43-.965 1 0 .57.449 1 .965 1s.964-.43.964-1c0-.57-.448-1-.964-1Zm-7.072 0c-.516 0-.964.43-.964 1 0 .57.448 1 .964 1s.965-.43.965-1c0-.57-.449-1-.965-1Zm5.107 1c0-1.105.88-2 1.965-2S20 20.895 20 22s-.88 2-1.964 2c-1.085 0-1.965-.895-1.965-2ZM9 22c0-1.105.88-2 1.964-2 1.085 0 1.965.895 1.965 2s-.88 2-1.965 2S9 23.105 9 22ZM0 1a1 1 0 0 1 1-1h4.68a1 1 0 0 1 .968.744l1.29 4.873H23a1 1 0 0 1 .94 1.342l-3.745 10.298a1 1 0 0 1-.94.658H9.894a1 1 0 0 1-.967-.744L4.91 2H1a1 1 0 0 1-1-1Zm8.467 6.617 2.196 8.298h7.892l3.017-8.298H8.467Z" fill="currentColor"/></svg><svg fill="none" viewBox="3.58 0 20.776 24.32" style="max-height:500px" id="home" xmlns="http://www.w3.org/2000/svg"><g filter="url(#ca)"><path fill="#E11C4B" d="M6.222 24h15.556c.59 0 1.154-.253 1.571-.703A2.5 2.5 0 0 0 24 21.6V10.8c0-.157-.027-.314-.082-.46a1.213 1.213 0 0 0-.24-.391l-8.89-9.6A1.07 1.07 0 0 0 14.006 0a1.07 1.07 0 0 0-.783.349l-8.889 9.6a1.208 1.208 0 0 0-.245.39A1.283 1.283 0 0 0 4 10.8v10.8a2.5 2.5 0 0 0 .65 1.697c.418.45.983.703 1.572.703Zm5.556-2.4v-6h4.444v6h-4.444ZM6.222 11.292 14 2.893l7.778 8.4V21.6h-3.334v-6a2.5 2.5 0 0 0-.65-1.697 2.143 2.143 0 0 0-1.572-.703h-4.444c-.59 0-1.155.253-1.572.703a2.5 2.5 0 0 0-.65 1.697v6H6.222V11.292Z"/></g><defs><filter color-interpolation-filters="sRGB" filterUnits="userSpaceOnUse" height="32" width="28" y="0" x="0" id="ca"><feFlood result="BackgroundImageFix" flood-opacity="0"/><feColorMatrix result="hardAlpha" values="0 0 0 0 0 0 0 0 0 0 0 0 0 0 0 0 0 0 127 0" in="SourceAlpha"/><feOffset dy="4"/><feGaussianBlur stdDeviation="2"/><feComposite operator="out" in2="hardAlpha"/><feColorMatrix values="0 0 0 0 0 0 0 0 0 0 0 0 0 0 0 0 0 0 0.25 0"/><feBlend result="effect1_dropShadow_4952_127" in2="BackgroundImageFix"/><feBlend result="shape" in2="effect1_dropShadow_4952_127" in="SourceGraphic"/></filter></defs></svg><svg fill="none" viewBox="0 0 24 24" id="like" xmlns="http://www.w3.org/2000/svg"><path d="M16.65 0a7.574 7.574 0 0 0-2.927.635l-.044.02-.045.025a7.344 7.344 0 0 0-1.673 1.266c-2.68-2.512-6.947-2.694-9.867.157l-.03.03-.026.03C-.523 5.06-.463 9.523 1.072 13.05l.013.028.014.029c1.808 3.627 5.184 6.709 8.26 9.242l.009.008.007.006c.197.157.538.482.93.802.394.32.838.67 1.487.805l.146.03.146-.013c.682-.064.95-.336 1.397-.642.448-.305.944-.693 1.453-1.117a42.864 42.864 0 0 0 2.727-2.487c.009-.01.023-.022.032-.03l.004-.005c1.441-1.332 2.869-2.868 4.079-4.674v-.002l.008-.01c1.919-2.799 2.85-6.571 1.74-10.288l-.02-.066-.027-.062C22.23 1.684 19.549-.032 16.65 0Zm.034 2.287c2.09-.052 3.92 1.16 4.829 3.232.84 2.9.114 5.857-1.45 8.133l-.005.005-.003.006c-1.09 1.629-2.41 3.055-3.777 4.316l-.018.017-.017.018a41.55 41.55 0 0 1-2.611 2.381c-.476.397-.933.752-1.288.993-.133.091-.26.153-.364.201a3.243 3.243 0 0 1-.392-.273c-.29-.236-.599-.537-.935-.806l-.016-.013c-2.986-2.46-6.131-5.448-7.644-8.46-1.228-2.842-1.174-6.243.56-8.241 2.36-2.272 5.863-1.778 7.61.553l.852 1.135.823-1.158a5.225 5.225 0 0 1 1.725-1.56 5.815 5.815 0 0 1 2.121-.479Z" fill="currentColor"/></svg><svg fill="none" viewBox="0 0 24 24" id="search" xmlns="http://www.w3.org/2000/svg"><path d="M10.264 20.526c2.277 0 4.488-.763 6.282-2.166l5.64 5.64L24 22.186l-5.64-5.64a10.202 10.202 0 0 0 2.167-6.283C20.527 4.604 15.923 0 10.263 0 4.605 0 0 4.604 0 10.263s4.604 10.263 10.264 10.263Zm0-17.96c4.245 0 7.697 3.452 7.697 7.697s-3.452 7.697-7.697 7.697c-4.246 0-7.698-3.452-7.698-7.697s3.452-7.697 7.698-7.697Z" fill="currentColor"/></svg></svg>