<svg width="24" height="24" fill="none" xmlns="http://www.w3.org/2000/svg"><path fill-rule="evenodd" clip-rule="evenodd" d="M14.161 7.09a2.16 2.16 0 0 0-2.572-2.122h-.005c-.409.072-.848.349-1.201.806-.352.457-.545 1.003-.545 1.477v1c0 .472.193 1.015.547 1.472.354.458.796.737 1.206.813a2.16 2.16 0 0 0 2.57-2.124V7.091Zm-2.975-4.372a4.446 4.446 0 0 1 5.261 4.373v1.321a4.446 4.446 0 0 1-5.263 4.373h-.004c-1.082-.2-1.984-.864-2.602-1.662-.618-.798-1.025-1.823-1.025-2.871v-1c0-1.047.402-2.073 1.02-2.874.617-.8 1.522-1.467 2.613-1.66Z" fill="#8D8D8D"/><path fill-rule="evenodd" clip-rule="evenodd" d="M12 2.286c-5.365 0-9.714 4.349-9.714 9.714S6.635 21.714 12 21.714s9.714-4.349 9.714-9.714S17.365 2.286 12 2.286ZM0 12C0 5.373 5.373 0 12 0s12 5.373 12 12-5.373 12-12 12S0 18.627 0 12Z" fill="#8D8D8D"/><path fill-rule="evenodd" clip-rule="evenodd" d="M12 16.447c-2.896 0-5.338 1.664-6.358 3.957a1.143 1.143 0 0 1-2.088-.929C4.952 16.33 8.23 14.161 12 14.161c3.77 0 7.048 2.17 8.446 5.314a1.143 1.143 0 1 1-2.089.929c-1.019-2.293-3.461-3.957-6.357-3.957Z" fill="#8D8D8D"/></svg>