<svg width="28" height="19" fill="none" xmlns="http://www.w3.org/2000/svg"><path d="M5.912 12.928 1.34 17.335a2.71 2.71 0 0 1-.296-1.264V1.632l8.285 8.002m8.92.463 8.784-8.491V16.07c0 .469-.104.9-.286 1.237l-6.384-6.118M1.375 1.408l-.033-.021M9.33 9.633l2.326 2.25c.125.12.25.223.375.31 1.264.98 2.737.98 3.996-.005a3.71 3.71 0 0 0 .36-.305l2.341-2.26" stroke="#8D8D8D" stroke-width="1.5" stroke-miterlimit="10" stroke-linecap="round" stroke-linejoin="round"/><path d="m20.323 11.15 6.424 6.158c-.218.419-.556.691-.931.691H2.262c-.364 0-.697-.256-.921-.664l6.285-6.06" stroke="#8D8D8D" stroke-width="1.5" stroke-miterlimit="10" stroke-linecap="round" stroke-linejoin="round"/><path d="M21.219 1h4.923c.307 0 .604.19.817.496a.78.78 0 0 1 .073.109l-8.306 8.017-2.342 2.26c-.114.11-.24.219-.359.306-1.26.986-2.732.986-3.997.005a3.146 3.146 0 0 1-.374-.31l-2.327-2.25-8.285-8.001.073-.11C1.334 1.197 1.63 1 1.953 1h4.413M2.33 18s-1.432.076-1.285-2.443" stroke="#8D8D8D" stroke-width="1.5" stroke-miterlimit="10" stroke-linecap="round" stroke-linejoin="round"/></svg>